<svg width="64" height="64" viewBox="0 0 64 64" fill="none" xmlns="http://www.w3.org/2000/svg" fill-opacity="1">
<path d="M20.7473 21.801C20.8743 21.6596 23.9402 18.3424 27.0977 18.7639C28.6302 18.9684 29.8732 19.969 30.7996 21.7389C30.909 21.9616 30.929 22.2192 30.8554 22.4568C30.7818 22.6945 30.6204 22.8932 30.4056 23.0108C30.1909 23.1284 29.9397 23.1554 29.7057 23.0861C29.4717 23.0169 29.2735 22.8568 29.1532 22.6401C28.5209 21.4302 27.771 20.7823 26.8614 20.659C25.0319 20.4124 22.813 22.341 22.1117 23.1055C21.9411 23.2838 21.709 23.3866 21.4653 23.3921C21.2215 23.3976 20.9853 23.3054 20.8071 23.135C20.6289 22.9647 20.5229 22.7297 20.5117 22.4805C20.5006 22.2312 20.5851 21.9874 20.7473 21.801Z" fill="white"/>
<path d="M31.0863 14.1518C32.2798 13.5958 33.5683 13.2847 34.8788 13.2363C36.8773 13.1703 39.706 13.7619 41.8502 16.9577C41.9196 17.0611 41.9684 17.1776 41.9938 17.3004C42.0193 17.4232 42.0208 17.5499 41.9984 17.6733C41.976 17.7967 41.9301 17.9143 41.8632 18.0195C41.7963 18.1248 41.7099 18.2155 41.6088 18.2865C41.5077 18.3576 41.3939 18.4075 41.2739 18.4335C41.1539 18.4596 41.0301 18.4612 40.9095 18.4382C40.7889 18.4153 40.6739 18.3683 40.5711 18.2998C40.4683 18.2314 40.3796 18.143 40.3102 18.0395C38.9729 16.0459 37.1658 15.074 34.9395 15.1466C33.898 15.1887 32.8737 15.4315 31.9202 15.8625C31.8105 15.9185 31.691 15.9519 31.5686 15.9606C31.4463 15.9694 31.3234 15.9535 31.2071 15.9137C31.0908 15.8739 30.9832 15.811 30.8906 15.7287C30.798 15.6463 30.7222 15.5462 30.6674 15.4338C30.6127 15.3215 30.5801 15.1992 30.5715 15.074C30.5629 14.9488 30.5785 14.8231 30.6174 14.704C30.6563 14.585 30.7177 14.4749 30.7982 14.3802C30.8786 14.2854 30.9765 14.2078 31.0863 14.1518Z" fill="white"/>
<path fill-rule="evenodd" clip-rule="evenodd" d="M52.7476 20.3637C52.8984 20.8036 52.9828 21.2644 52.9979 21.7303C53.0031 21.9026 52.9986 22.0742 52.9846 22.2448L53 22.247L52.9731 22.3967C52.9484 22.6875 52.8967 22.9753 52.8188 23.2563L48.395 47.9295C47.739 51.596 45.8337 54.9123 43.0118 57.2996C40.1899 59.6869 36.6307 60.9934 32.9556 60.9909H32.7983C32.2843 61.0113 31.9966 60.9909 31.9966 60.9909H31.0377C27.3637 60.9918 23.8061 59.6846 20.9856 57.2974C18.1651 54.9103 16.2608 51.5948 15.605 47.9295L11.3626 24.2665C11.0681 23.9125 10.8144 23.522 10.6083 23.1023C10.1064 22.0804 9.90852 20.9303 10.0392 19.7945C10.1698 18.6586 10.6232 17.5869 11.3432 16.7122C12.0631 15.8375 13.0181 15.1981 14.0897 14.8733C14.2935 13.1394 15.098 11.5376 16.3572 10.3588C17.6165 9.17994 19.2469 8.50211 20.9528 8.44831H21.175C21.6967 8.44811 22.2169 8.50644 22.7262 8.62225C23.71 6.95735 25.0857 5.5711 26.7276 4.59003C28.3694 3.60895 30.2253 3.06429 32.1257 3.00574C32.2452 3.00191 32.3638 3 32.4815 3C34.6798 3.00106 36.8309 3.65263 38.6755 4.87619C40.5202 6.09975 41.9798 7.8431 42.8784 9.89616C45.4462 9.90283 47.9111 10.9304 49.7525 12.7618C51.594 14.5933 52.6679 17.0854 52.7476 19.7119C52.7551 19.9308 52.7542 20.1477 52.7476 20.3637ZM48.9776 25.3399L49.0933 25.2443C50.0459 24.4444 51.1731 23.1954 51.1283 21.7867C51.1188 21.5142 51.0687 21.2448 50.9798 20.9877V20.2838C50.8868 20.0838 50.8834 19.9619 50.8793 19.8126C50.8789 19.7985 50.8785 19.784 50.878 19.7693C50.8133 17.6385 49.9421 15.6168 48.4483 14.1309C46.9546 12.645 44.955 11.8113 42.8718 11.8056H41.6643L41.1703 10.6779C40.4182 8.96194 39.1978 7.50484 37.6557 6.48184C36.1136 5.45883 34.3155 4.91347 32.4778 4.91135C32.4284 4.91135 32.3788 4.91254 32.329 4.91373C32.2791 4.91493 32.229 4.91613 32.1789 4.91613C30.5899 4.96475 29.0382 5.42058 27.6659 6.24187C26.2936 7.06317 25.1446 8.22367 24.3241 9.61711L23.6293 10.7888L22.3218 10.4915C21.9457 10.4056 21.5614 10.3623 21.176 10.3625H21.0116C19.7528 10.4023 18.5496 10.9024 17.6202 11.772C16.6907 12.6416 16.0965 13.8232 15.9453 15.1027L15.7996 16.3518L14.622 16.7101C13.9018 16.9291 13.2601 17.3593 12.7764 17.9475C12.2926 18.5358 11.988 19.2562 11.9003 20.0198C11.8125 20.7834 11.9455 21.5565 12.2827 22.2436C12.6198 22.9306 13.1465 23.5014 13.7974 23.8854L14.1896 24.1176L14.4343 24.5085C15.3672 25.9945 17.4628 27.3736 20.3355 28.3837C23.5013 29.4971 27.3358 30.0858 31.4253 30.0858C31.8661 30.0858 32.3143 30.0781 32.7579 30.0648C36.528 29.9463 40.1627 29.3346 43.2669 28.2834L43.4611 28.2174L43.6656 28.1964C45.6795 27.9915 47.5424 27.0119 48.8776 25.4555L48.9776 25.3399ZM32 37.5C30.8954 37.5 30 38.3954 30 39.5V43.5H26C24.8954 43.5 24 44.3954 24 45.5C24 46.6046 24.8954 47.5 26 47.5H30V51.5C30 52.6046 30.8954 53.5 32 53.5C33.1046 53.5 34 52.6046 34 51.5V47.5H38C39.1046 47.5 40 46.6046 40 45.5C40 44.3954 39.1046 43.5 38 43.5H34V39.5C34 38.3954 33.1046 37.5 32 37.5Z" fill="white"/>
</svg>
